<svg width="1920" height="186" viewBox="0 0 1920 186" fill="none" xmlns="http://www.w3.org/2000/svg">
<path d="M-3.5892 108.705L1919.8 0.892552L1919.61 79.2814L-3.81245 186L-3.5892 108.705Z" fill="url(#paint0_linear_521_118)"/>
<path d="M108.315 147.785L112.286 147.554C112.315 149.049 112.086 150.327 111.597 151.387C111.109 152.438 110.374 153.257 109.394 153.844C108.422 154.43 107.227 154.765 105.807 154.847C104.706 154.912 103.718 154.787 102.842 154.472C101.966 154.149 101.208 153.646 100.567 152.962C99.9259 152.278 99.4212 151.417 99.0527 150.379C98.6928 149.332 98.4741 148.117 98.3966 146.734L98.2077 143.362C98.1302 141.979 98.2208 140.746 98.4797 139.662C98.7476 138.578 99.1617 137.66 99.7219 136.906C100.291 136.142 100.993 135.553 101.828 135.139C102.671 134.716 103.634 134.473 104.717 134.409C106.164 134.325 107.389 134.527 108.394 135.017C109.398 135.506 110.193 136.258 110.779 137.274C111.374 138.28 111.768 139.531 111.962 141.026L107.976 141.259C107.896 140.314 107.745 139.578 107.524 139.053C107.312 138.517 106.999 138.152 106.586 137.957C106.173 137.753 105.612 137.671 104.902 137.713C104.374 137.744 103.925 137.866 103.553 138.079C103.181 138.283 102.884 138.597 102.661 139.021C102.439 139.445 102.287 139.993 102.206 140.664C102.134 141.335 102.124 142.148 102.178 143.103L102.368 146.502C102.421 147.439 102.516 148.237 102.653 148.896C102.79 149.545 102.979 150.073 103.221 150.479C103.463 150.885 103.776 151.172 104.159 151.342C104.552 151.51 105.04 151.578 105.622 151.544C106.296 151.505 106.831 151.373 107.23 151.149C107.637 150.924 107.926 150.547 108.097 150.016C108.268 149.486 108.341 148.742 108.315 147.785ZM114.142 147.185L114.086 146.189C114.021 145.033 114.1 144.001 114.323 143.093C114.555 142.185 114.914 141.416 115.399 140.785C115.883 140.145 116.481 139.649 117.192 139.297C117.911 138.936 118.725 138.728 119.635 138.675C120.554 138.622 121.387 138.733 122.132 139.009C122.887 139.275 123.54 139.698 124.093 140.278C124.655 140.848 125.101 141.57 125.433 142.446C125.765 143.321 125.964 144.337 126.029 145.492L126.084 146.489C126.149 147.635 126.065 148.663 125.833 149.571C125.6 150.479 125.238 151.254 124.744 151.894C124.26 152.534 123.662 153.03 122.951 153.382C122.241 153.734 121.431 153.936 120.521 153.989C119.611 154.042 118.779 153.936 118.024 153.669C117.279 153.402 116.625 152.979 116.063 152.4C115.502 151.822 115.055 151.094 114.723 150.219C114.4 149.343 114.206 148.332 114.142 147.185ZM117.908 145.966L117.963 146.962C118.002 147.645 118.08 148.234 118.199 148.729C118.327 149.224 118.492 149.629 118.692 149.946C118.901 150.263 119.142 150.491 119.415 150.63C119.688 150.769 119.997 150.829 120.342 150.809C120.688 150.789 120.993 150.693 121.258 150.523C121.522 150.352 121.731 150.098 121.886 149.76C122.049 149.422 122.158 149 122.212 148.495C122.275 147.989 122.287 147.395 122.249 146.712L122.193 145.716C122.156 145.052 122.073 144.472 121.945 143.977C121.817 143.474 121.652 143.068 121.453 142.76C121.252 142.443 121.011 142.21 120.729 142.063C120.455 141.905 120.15 141.836 119.813 141.856C119.477 141.875 119.181 141.979 118.927 142.168C118.682 142.346 118.472 142.605 118.3 142.944C118.136 143.273 118.018 143.695 117.946 144.211C117.883 144.716 117.87 145.302 117.908 145.966ZM133.622 152.952L129.786 153.175L128.887 137.122C128.823 135.985 128.966 135.022 129.314 134.235C129.663 133.448 130.18 132.833 130.868 132.392C131.564 131.949 132.404 131.699 133.386 131.642C133.705 131.624 134.007 131.633 134.292 131.672C134.586 131.7 134.871 131.747 135.149 131.813L135.278 134.86C135.158 134.83 135.015 134.811 134.851 134.803C134.686 134.794 134.512 134.795 134.33 134.805C133.966 134.827 133.657 134.922 133.402 135.092C133.156 135.262 132.972 135.496 132.852 135.796C132.741 136.094 132.698 136.462 132.722 136.899L133.622 152.952ZM135.101 138.047L135.262 140.928L127.319 141.391L127.157 138.511L135.101 138.047ZM142.794 152.417L138.958 152.64L138.059 136.588C137.995 135.45 138.138 134.488 138.486 133.7C138.834 132.913 139.352 132.299 140.04 131.857C140.736 131.414 141.576 131.165 142.558 131.107C142.877 131.089 143.179 131.099 143.464 131.137C143.757 131.165 144.043 131.213 144.321 131.278L144.45 134.325C144.33 134.295 144.187 134.276 144.023 134.268C143.858 134.259 143.684 134.26 143.502 134.271C143.138 134.292 142.829 134.388 142.574 134.558C142.327 134.727 142.144 134.962 142.024 135.261C141.913 135.559 141.87 135.927 141.894 136.364L142.794 152.417ZM144.273 137.513L144.434 140.393L136.491 140.856L136.329 137.976L144.273 137.513ZM152.868 152.103C151.858 152.162 150.953 152.06 150.153 151.796C149.362 151.532 148.682 151.124 148.113 150.573C147.543 150.013 147.093 149.322 146.764 148.501C146.435 147.681 146.241 146.733 146.181 145.659L146.113 144.445C146.045 143.243 146.123 142.184 146.345 141.267C146.567 140.341 146.911 139.554 147.377 138.906C147.843 138.258 148.431 137.763 149.142 137.42C149.862 137.068 150.686 136.865 151.614 136.811C152.542 136.756 153.365 136.864 154.083 137.132C154.81 137.391 155.422 137.812 155.92 138.395C156.418 138.968 156.81 139.694 157.097 140.572C157.383 141.45 157.56 142.481 157.626 143.664L157.724 145.411L147.829 145.988L147.678 143.299L153.82 142.941L153.801 142.599C153.767 141.999 153.675 141.502 153.526 141.109C153.375 140.707 153.158 140.414 152.874 140.229C152.59 140.045 152.22 139.966 151.765 139.993C151.383 140.015 151.064 140.111 150.809 140.281C150.554 140.451 150.358 140.705 150.222 141.041C150.085 141.378 149.996 141.812 149.952 142.344C149.909 142.867 149.907 143.493 149.948 144.221L150.016 145.436C150.054 146.118 150.146 146.688 150.29 147.145C150.434 147.594 150.627 147.957 150.871 148.234C151.124 148.503 151.422 148.691 151.765 148.799C152.109 148.897 152.503 148.934 152.949 148.908C153.623 148.868 154.221 148.715 154.745 148.447C155.277 148.169 155.722 147.81 156.081 147.369L157.74 149.601C157.495 149.962 157.15 150.329 156.706 150.702C156.261 151.075 155.722 151.389 155.088 151.645C154.454 151.901 153.714 152.054 152.868 152.103ZM166.244 151.323C165.234 151.382 164.329 151.28 163.529 151.016C162.738 150.752 162.058 150.344 161.489 149.793C160.919 149.233 160.469 148.542 160.14 147.721C159.811 146.901 159.617 145.953 159.556 144.88L159.488 143.665C159.421 142.463 159.499 141.404 159.721 140.487C159.943 139.562 160.287 138.775 160.753 138.127C161.219 137.479 161.807 136.983 162.518 136.64C163.238 136.288 164.062 136.085 164.99 136.031C165.918 135.977 166.741 136.084 167.459 136.352C168.186 136.611 168.798 137.032 169.296 137.615C169.794 138.188 170.186 138.914 170.473 139.792C170.759 140.67 170.935 141.701 171.002 142.884L171.1 144.631L161.204 145.208L161.054 142.519L167.196 142.161L167.176 141.819C167.143 141.219 167.051 140.722 166.901 140.329C166.751 139.927 166.534 139.634 166.249 139.449C165.965 139.265 165.596 139.186 165.141 139.213C164.759 139.235 164.44 139.331 164.185 139.501C163.929 139.671 163.734 139.925 163.597 140.261C163.461 140.598 163.371 141.032 163.328 141.565C163.284 142.087 163.283 142.713 163.324 143.441L163.392 144.656C163.43 145.338 163.521 145.908 163.666 146.365C163.809 146.814 164.003 147.177 164.247 147.455C164.499 147.723 164.797 147.911 165.141 148.019C165.484 148.117 165.879 148.154 166.325 148.128C166.998 148.088 167.597 147.935 168.12 147.667C168.652 147.389 169.098 147.03 169.457 146.589L171.115 148.821C170.871 149.182 170.526 149.549 170.082 149.922C169.637 150.295 169.098 150.609 168.464 150.865C167.83 151.121 167.09 151.274 166.244 151.323Z" fill="#EEDCC8"/>
<path d="M382.848 131.778L386.82 131.546C386.849 133.042 386.619 134.32 386.131 135.38C385.642 136.431 384.908 137.25 383.927 137.836C382.956 138.423 381.76 138.757 380.341 138.84C379.24 138.904 378.252 138.779 377.376 138.465C376.5 138.142 375.741 137.638 375.1 136.954C374.46 136.27 373.955 135.409 373.586 134.372C373.226 133.325 373.008 132.109 372.93 130.726L372.741 127.354C372.664 125.971 372.755 124.738 373.013 123.655C373.281 122.571 373.695 121.652 374.256 120.898C374.824 120.134 375.526 119.546 376.361 119.132C377.205 118.708 378.168 118.465 379.251 118.402C380.698 118.317 381.923 118.52 382.927 119.009C383.931 119.498 384.727 120.251 385.313 121.267C385.908 122.273 386.302 123.523 386.495 125.019L382.51 125.251C382.43 124.306 382.279 123.571 382.058 123.045C381.845 122.51 381.533 122.144 381.12 121.949C380.707 121.745 380.146 121.664 379.436 121.705C378.908 121.736 378.458 121.858 378.087 122.071C377.715 122.276 377.418 122.59 377.195 123.014C376.972 123.438 376.82 123.985 376.739 124.656C376.667 125.327 376.658 126.14 376.712 127.096L376.902 130.495C376.955 131.432 377.049 132.23 377.187 132.888C377.324 133.538 377.513 134.065 377.755 134.471C377.997 134.877 378.309 135.165 378.693 135.334C379.086 135.503 379.574 135.57 380.156 135.536C380.829 135.497 381.365 135.365 381.763 135.141C382.171 134.917 382.46 134.539 382.631 134.009C382.802 133.478 382.875 132.735 382.848 131.778ZM388.675 131.178L388.62 130.181C388.555 129.025 388.634 127.994 388.857 127.086C389.089 126.178 389.448 125.408 389.933 124.777C390.417 124.137 391.015 123.641 391.725 123.289C392.444 122.928 393.259 122.721 394.169 122.668C395.088 122.614 395.92 122.725 396.666 123.001C397.42 123.268 398.074 123.691 398.627 124.27C399.188 124.84 399.635 125.563 399.967 126.438C400.299 127.313 400.497 128.329 400.562 129.485L400.618 130.481C400.682 131.628 400.598 132.655 400.366 133.564C400.134 134.472 399.771 135.246 399.278 135.887C398.793 136.527 398.196 137.023 397.485 137.375C396.774 137.726 395.964 137.929 395.054 137.982C394.144 138.035 393.312 137.928 392.558 137.662C391.813 137.395 391.159 136.972 390.597 136.393C390.035 135.814 389.588 135.087 389.256 134.211C388.933 133.336 388.74 132.324 388.675 131.178ZM392.441 129.958L392.497 130.955C392.535 131.637 392.614 132.226 392.733 132.721C392.861 133.216 393.025 133.622 393.226 133.939C393.435 134.255 393.676 134.483 393.949 134.623C394.221 134.762 394.53 134.821 394.876 134.801C395.222 134.781 395.527 134.686 395.791 134.515C396.056 134.345 396.265 134.09 396.419 133.753C396.583 133.414 396.692 132.993 396.746 132.487C396.809 131.982 396.821 131.387 396.783 130.705L396.727 129.708C396.69 129.044 396.607 128.465 396.479 127.97C396.35 127.466 396.186 127.06 395.986 126.752C395.786 126.435 395.545 126.203 395.262 126.055C394.989 125.898 394.684 125.829 394.347 125.848C394.01 125.868 393.715 125.972 393.461 126.16C393.215 126.339 393.006 126.597 392.833 126.936C392.669 127.265 392.551 127.688 392.48 128.203C392.417 128.709 392.404 129.294 392.441 129.958ZM408.155 136.944L404.32 137.168L403.421 121.115C403.357 119.977 403.499 119.015 403.848 118.228C404.196 117.44 404.714 116.826 405.401 116.384C406.098 115.942 406.937 115.692 407.92 115.635C408.239 115.616 408.54 115.626 408.825 115.664C409.119 115.692 409.405 115.74 409.682 115.806L409.812 118.852C409.692 118.823 409.549 118.804 409.384 118.795C409.219 118.786 409.046 118.787 408.864 118.798C408.5 118.819 408.191 118.915 407.935 119.085C407.689 119.254 407.506 119.489 407.386 119.788C407.275 120.087 407.232 120.454 407.256 120.891L408.155 136.944ZM409.635 122.04L409.796 124.92L401.852 125.383L401.691 122.503L409.635 122.04ZM417.327 136.409L413.492 136.633L412.593 120.58C412.529 119.442 412.671 118.48 413.02 117.693C413.368 116.906 413.886 116.291 414.573 115.849C415.27 115.407 416.109 115.157 417.092 115.1C417.41 115.081 417.712 115.091 417.997 115.129C418.291 115.158 418.577 115.205 418.854 115.271L418.984 118.317C418.864 118.288 418.721 118.269 418.556 118.26C418.391 118.251 418.218 118.252 418.036 118.263C417.672 118.284 417.362 118.38 417.107 118.55C416.861 118.72 416.678 118.954 416.558 119.253C416.447 119.552 416.403 119.92 416.428 120.356L417.327 136.409ZM418.806 121.505L418.968 124.385L411.024 124.848L410.863 121.968L418.806 121.505ZM427.402 136.096C426.392 136.155 425.487 136.052 424.687 135.788C423.896 135.524 423.216 135.116 422.647 134.565C422.077 134.005 421.627 133.315 421.298 132.494C420.969 131.673 420.775 130.726 420.714 129.652L420.646 128.437C420.579 127.236 420.657 126.177 420.879 125.26C421.101 124.334 421.445 123.547 421.911 122.899C422.377 122.251 422.965 121.756 423.676 121.413C424.396 121.06 425.22 120.857 426.148 120.803C427.076 120.749 427.899 120.856 428.617 121.125C429.344 121.384 429.956 121.804 430.454 122.387C430.952 122.961 431.344 123.686 431.63 124.564C431.917 125.442 432.093 126.473 432.16 127.656L432.258 129.403L422.362 129.98L422.212 127.291L428.354 126.933L428.334 126.592C428.301 125.991 428.209 125.494 428.059 125.101C427.909 124.699 427.692 124.406 427.407 124.222C427.123 124.038 426.754 123.959 426.299 123.985C425.917 124.007 425.598 124.104 425.343 124.274C425.087 124.444 424.892 124.697 424.755 125.034C424.619 125.37 424.529 125.805 424.486 126.337C424.442 126.86 424.441 127.485 424.482 128.213L424.55 129.428C424.588 130.111 424.679 130.681 424.823 131.138C424.967 131.586 425.161 131.949 425.405 132.227C425.657 132.495 425.955 132.683 426.299 132.791C426.642 132.89 427.037 132.926 427.483 132.9C428.156 132.861 428.755 132.707 429.278 132.439C429.81 132.162 430.256 131.803 430.615 131.362L432.273 133.593C432.029 133.954 431.684 134.321 431.239 134.694C430.795 135.067 430.256 135.382 429.622 135.638C428.988 135.894 428.248 136.046 427.402 136.096ZM440.777 135.316C439.767 135.375 438.863 135.272 438.063 135.009C437.272 134.744 436.592 134.336 436.022 133.785C435.452 133.225 435.003 132.535 434.674 131.714C434.345 130.893 434.15 129.946 434.09 128.872L434.022 127.657C433.955 126.456 434.032 125.397 434.255 124.48C434.477 123.554 434.821 122.767 435.287 122.119C435.752 121.471 436.341 120.976 437.052 120.633C437.772 120.28 438.595 120.077 439.524 120.023C440.452 119.969 441.275 120.076 441.993 120.345C442.719 120.604 443.332 121.024 443.83 121.607C444.328 122.181 444.72 122.907 445.006 123.785C445.293 124.663 445.469 125.693 445.535 126.876L445.633 128.623L435.738 129.2L435.587 126.511L441.729 126.153L441.71 125.812C441.677 125.211 441.585 124.714 441.435 124.321C441.285 123.919 441.067 123.626 440.783 123.442C440.499 123.258 440.129 123.179 439.674 123.205C439.292 123.228 438.974 123.324 438.718 123.494C438.463 123.664 438.267 123.917 438.131 124.254C437.995 124.591 437.905 125.025 437.862 125.557C437.818 126.08 437.817 126.705 437.857 127.433L437.925 128.648C437.964 129.331 438.055 129.901 438.199 130.358C438.343 130.806 438.537 131.169 438.781 131.447C439.033 131.715 439.331 131.903 439.675 132.011C440.018 132.11 440.413 132.146 440.859 132.12C441.532 132.081 442.13 131.927 442.654 131.659C443.186 131.382 443.632 131.023 443.99 130.582L445.649 132.813C445.404 133.174 445.06 133.541 444.615 133.914C444.171 134.287 443.631 134.602 442.997 134.858C442.364 135.114 441.624 135.267 440.777 135.316Z" fill="#EEDCC8"/>
<path d="M657.382 115.77L661.354 115.539C661.383 117.034 661.153 118.312 660.665 119.372C660.176 120.423 659.441 121.242 658.461 121.829C657.49 122.415 656.294 122.75 654.875 122.832C653.774 122.897 652.785 122.772 651.91 122.458C651.033 122.134 650.275 121.631 649.634 120.947C648.993 120.263 648.489 119.402 648.12 118.365C647.76 117.317 647.541 116.102 647.464 114.719L647.275 111.347C647.198 109.964 647.288 108.731 647.547 107.647C647.815 106.563 648.229 105.645 648.789 104.891C649.358 104.127 650.06 103.538 650.895 103.124C651.738 102.701 652.702 102.458 653.784 102.395C655.231 102.31 656.457 102.513 657.461 103.002C658.465 103.491 659.26 104.244 659.847 105.259C660.442 106.265 660.836 107.516 661.029 109.011L657.044 109.244C656.963 108.299 656.813 107.564 656.592 107.038C656.379 106.502 656.066 106.137 655.654 105.942C655.241 105.738 654.679 105.657 653.97 105.698C653.442 105.729 652.992 105.851 652.621 106.064C652.249 106.268 651.951 106.583 651.729 107.006C651.506 107.43 651.354 107.978 651.273 108.649C651.201 109.32 651.192 110.133 651.245 111.088L651.436 114.487C651.488 115.425 651.583 116.222 651.72 116.881C651.857 117.53 652.047 118.058 652.288 118.464C652.53 118.87 652.843 119.157 653.227 119.327C653.62 119.496 654.107 119.563 654.69 119.529C655.363 119.49 655.899 119.358 656.297 119.134C656.704 118.909 656.994 118.532 657.165 118.002C657.336 117.471 657.408 116.727 657.382 115.77ZM663.209 115.17L663.153 114.174C663.089 113.018 663.168 111.986 663.391 111.079C663.623 110.17 663.981 109.401 664.466 108.77C664.951 108.13 665.548 107.634 666.259 107.282C666.978 106.921 667.793 106.713 668.703 106.66C669.622 106.607 670.454 106.718 671.2 106.994C671.954 107.26 672.608 107.683 673.161 108.263C673.722 108.833 674.169 109.555 674.501 110.431C674.833 111.306 675.031 112.322 675.096 113.477L675.152 114.474C675.216 115.621 675.132 116.648 674.9 117.556C674.668 118.465 674.305 119.239 673.811 119.879C673.327 120.519 672.729 121.015 672.019 121.367C671.308 121.719 670.498 121.921 669.588 121.975C668.678 122.028 667.846 121.921 667.092 121.654C666.346 121.388 665.693 120.965 665.131 120.386C664.569 119.807 664.122 119.079 663.79 118.204C663.467 117.328 663.273 116.317 663.209 115.17ZM666.975 113.951L667.031 114.947C667.069 115.63 667.148 116.219 667.267 116.714C667.395 117.209 667.559 117.615 667.759 117.932C667.969 118.248 668.21 118.476 668.482 118.615C668.755 118.755 669.064 118.814 669.41 118.794C669.756 118.774 670.061 118.678 670.325 118.508C670.589 118.337 670.799 118.083 670.953 117.745C671.117 117.407 671.226 116.985 671.279 116.48C671.342 115.974 671.355 115.38 671.316 114.698L671.261 113.701C671.223 113.037 671.141 112.457 671.013 111.963C670.884 111.459 670.72 111.053 670.52 110.745C670.32 110.428 670.078 110.196 669.796 110.048C669.523 109.89 669.217 109.821 668.881 109.841C668.544 109.86 668.249 109.964 667.995 110.153C667.749 110.331 667.54 110.59 667.367 110.929C667.203 111.258 667.085 111.68 667.014 112.196C666.951 112.702 666.938 113.287 666.975 113.951ZM682.689 120.937L678.854 121.16L677.954 105.107C677.891 103.97 678.033 103.007 678.382 102.22C678.73 101.433 679.248 100.818 679.935 100.377C680.632 99.9344 681.471 99.6846 682.454 99.6273C682.772 99.6087 683.074 99.6185 683.359 99.6566C683.653 99.6852 683.939 99.7324 684.216 99.7984L684.346 102.845C684.225 102.815 684.083 102.796 683.918 102.788C683.753 102.779 683.58 102.78 683.398 102.791C683.034 102.812 682.724 102.907 682.469 103.078C682.223 103.247 682.04 103.481 681.92 103.781C681.809 104.079 681.765 104.447 681.79 104.884L682.689 120.937ZM684.168 106.032L684.33 108.913L676.386 109.376L676.225 106.496L684.168 106.032ZM691.861 120.402L688.026 120.626L687.126 104.573C687.063 103.435 687.205 102.473 687.553 101.685C687.902 100.898 688.42 100.284 689.107 99.8419C689.803 99.3996 690.643 99.1498 691.626 99.0925C691.944 99.0739 692.246 99.0837 692.531 99.1218C692.825 99.1504 693.11 99.1976 693.388 99.2636L693.518 102.31C693.397 102.281 693.255 102.261 693.09 102.253C692.925 102.244 692.752 102.245 692.57 102.256C692.206 102.277 691.896 102.373 691.641 102.543C691.395 102.712 691.212 102.947 691.092 103.246C690.98 103.544 690.937 103.912 690.962 104.349L691.861 120.402ZM693.34 105.498L693.502 108.378L685.558 108.841L685.397 105.961L693.34 105.498ZM701.935 120.088C700.925 120.147 700.02 120.045 699.221 119.781C698.43 119.517 697.75 119.109 697.18 118.558C696.61 117.998 696.161 117.307 695.832 116.486C695.503 115.666 695.308 114.718 695.248 113.645L695.18 112.43C695.113 111.228 695.19 110.169 695.413 109.252C695.635 108.327 695.979 107.54 696.444 106.892C696.91 106.244 697.499 105.748 698.21 105.405C698.93 105.053 699.753 104.85 700.682 104.796C701.61 104.742 702.433 104.849 703.151 105.117C703.877 105.376 704.49 105.797 704.988 106.38C705.486 106.953 705.878 107.679 706.164 108.557C706.451 109.435 706.627 110.466 706.693 111.649L706.791 113.396L696.896 113.973L696.745 111.284L702.887 110.926L702.868 110.584C702.834 109.984 702.743 109.487 702.593 109.094C702.443 108.692 702.225 108.399 701.941 108.214C701.657 108.03 701.287 107.951 700.832 107.978C700.45 108 700.132 108.096 699.876 108.266C699.621 108.436 699.425 108.69 699.289 109.026C699.153 109.363 699.063 109.797 699.02 110.33C698.976 110.852 698.975 111.478 699.015 112.206L699.083 113.421C699.122 114.103 699.213 114.673 699.357 115.131C699.501 115.579 699.695 115.942 699.939 116.22C700.191 116.488 700.489 116.676 700.833 116.784C701.176 116.882 701.571 116.919 702.017 116.893C702.69 116.853 703.288 116.7 703.812 116.432C704.344 116.154 704.79 115.795 705.148 115.354L706.807 117.586C706.562 117.947 706.218 118.314 705.773 118.687C705.328 119.06 704.789 119.374 704.155 119.63C703.522 119.886 702.782 120.039 701.935 120.088ZM715.311 119.309C714.301 119.367 713.396 119.265 712.596 119.001C711.806 118.737 711.125 118.329 710.556 117.778C709.986 117.218 709.537 116.527 709.208 115.707C708.879 114.886 708.684 113.938 708.624 112.865L708.556 111.65C708.488 110.448 708.566 109.389 708.789 108.473C709.011 107.547 709.354 106.76 709.82 106.112C710.286 105.464 710.874 104.968 711.586 104.626C712.305 104.273 713.129 104.07 714.057 104.016C714.985 103.962 715.808 104.069 716.526 104.337C717.253 104.596 717.865 105.017 718.364 105.6C718.861 106.173 719.253 106.899 719.54 107.777C719.826 108.655 720.003 109.686 720.069 110.869L720.167 112.616L710.272 113.193L710.121 110.504L716.263 110.146L716.244 109.805C716.21 109.204 716.118 108.707 715.969 108.314C715.818 107.912 715.601 107.619 715.317 107.435C715.033 107.25 714.663 107.171 714.208 107.198C713.826 107.22 713.507 107.316 713.252 107.486C712.997 107.657 712.801 107.91 712.665 108.247C712.528 108.583 712.439 109.018 712.395 109.55C712.352 110.073 712.35 110.698 712.391 111.426L712.459 112.641C712.497 113.324 712.589 113.893 712.733 114.351C712.877 114.799 713.07 115.162 713.314 115.44C713.567 115.708 713.865 115.896 714.209 116.004C714.552 116.103 714.946 116.139 715.392 116.113C716.066 116.074 716.664 115.92 717.188 115.652C717.72 115.375 718.165 115.015 718.524 114.574L720.183 116.806C719.938 117.167 719.594 117.534 719.149 117.907C718.704 118.28 718.165 118.594 717.531 118.85C716.897 119.106 716.157 119.259 715.311 119.309Z" fill="#EEDCC8"/>
<path d="M931.916 99.7627L935.887 99.5311C935.917 101.027 935.687 102.305 935.199 103.365C934.71 104.416 933.975 105.235 932.995 105.821C932.023 106.408 930.828 106.742 929.408 106.825C928.307 106.889 927.319 106.764 926.443 106.45C925.567 106.127 924.809 105.623 924.168 104.939C923.527 104.255 923.022 103.395 922.654 102.357C922.294 101.31 922.075 100.095 921.998 98.7113L921.809 95.3396C921.731 93.9563 921.822 92.7231 922.081 91.6398C922.349 90.5559 922.763 89.637 923.323 88.8831C923.892 88.1195 924.594 87.5308 925.429 87.1169C926.272 86.6934 927.235 86.4501 928.318 86.3869C929.765 86.3026 930.99 86.505 931.995 86.9943C932.999 87.4835 933.794 88.236 934.38 89.2518C934.975 90.2579 935.37 91.5086 935.563 93.0038L931.577 93.2362C931.497 92.2913 931.346 91.556 931.125 91.0302C930.913 90.4948 930.6 90.1296 930.187 89.9345C929.774 89.7304 929.213 89.649 928.503 89.6904C927.975 89.7211 927.526 89.8432 927.154 90.0566C926.782 90.2609 926.485 90.5749 926.262 90.9988C926.04 91.4226 925.888 91.9702 925.807 92.6414C925.735 93.3121 925.725 94.1252 925.779 95.0807L925.969 98.4797C926.022 99.417 926.117 100.215 926.254 100.873C926.391 101.523 926.58 102.05 926.822 102.456C927.064 102.862 927.377 103.15 927.761 103.319C928.153 103.488 928.641 103.555 929.223 103.521C929.897 103.482 930.432 103.351 930.831 103.126C931.238 102.902 931.527 102.524 931.698 101.994C931.87 101.464 931.942 100.72 931.916 99.7627ZM937.743 99.1627L937.687 98.1662C937.622 97.0105 937.701 95.9787 937.924 95.071C938.156 94.1627 938.515 93.3931 939 92.7623C939.485 92.1223 940.082 91.6264 940.793 91.2746C941.512 90.9131 942.326 90.7058 943.236 90.6527C944.155 90.5992 944.988 90.7104 945.734 90.9865C946.488 91.2529 947.141 91.6759 947.694 92.2553C948.256 92.8252 948.702 93.5478 949.034 94.4232C949.366 95.2986 949.565 96.3141 949.63 97.4699L949.685 98.4664C949.75 99.613 949.666 100.64 949.434 101.549C949.202 102.457 948.839 103.231 948.345 103.872C947.861 104.512 947.263 105.008 946.552 105.36C945.842 105.711 945.032 105.914 944.122 105.967C943.212 106.02 942.38 105.913 941.625 105.647C940.88 105.38 940.226 104.957 939.665 104.378C939.103 103.799 938.656 103.072 938.324 102.197C938.001 101.321 937.807 100.309 937.743 99.1627ZM941.509 97.9434L941.564 98.9399C941.603 99.6224 941.681 100.211 941.8 100.706C941.929 101.201 942.093 101.607 942.293 101.924C942.503 102.24 942.744 102.468 943.016 102.608C943.289 102.747 943.598 102.807 943.944 102.786C944.289 102.766 944.594 102.671 944.859 102.5C945.123 102.33 945.332 102.075 945.487 101.738C945.651 101.4 945.759 100.978 945.813 100.472C945.876 99.9667 945.888 99.3725 945.85 98.69L945.794 97.6935C945.757 97.0292 945.674 96.4497 945.546 95.955C945.418 95.4512 945.253 95.0454 945.054 94.7375C944.853 94.4205 944.612 94.188 944.33 94.0401C944.056 93.8826 943.751 93.8137 943.415 93.8333C943.078 93.8529 942.782 93.9569 942.528 94.1452C942.283 94.3238 942.073 94.5825 941.901 94.9213C941.737 95.2504 941.619 95.6727 941.547 96.1882C941.484 96.694 941.471 97.2791 941.509 97.9434ZM957.223 104.929L953.388 105.153L952.488 89.0999C952.424 87.9623 952.567 86.9999 952.915 86.2127C953.264 85.4254 953.781 84.8109 954.469 84.3691C955.165 83.9268 956.005 83.677 956.987 83.6197C957.306 83.6011 957.608 83.6109 957.893 83.6491C958.187 83.6776 958.472 83.7248 958.75 83.7908L958.879 86.8373C958.759 86.8078 958.616 86.7887 958.452 86.78C958.287 86.7714 958.113 86.7724 957.932 86.783C957.568 86.8042 957.258 86.8999 957.003 87.07C956.757 87.2395 956.573 87.4739 956.453 87.773C956.342 88.0717 956.299 88.4394 956.323 88.8762L957.223 104.929ZM958.702 90.0249L958.863 92.9051L950.92 93.3683L950.758 90.488L958.702 90.0249ZM966.395 104.394L962.559 104.618L961.66 88.5651C961.596 87.4275 961.739 86.4651 962.087 85.6779C962.436 84.8906 962.953 84.2761 963.641 83.8343C964.337 83.392 965.177 83.1422 966.159 83.0849C966.478 83.0663 966.78 83.0761 967.065 83.1143C967.358 83.1428 967.644 83.1901 967.922 83.256L968.051 86.3025C967.931 86.273 967.788 86.2539 967.624 86.2452C967.459 86.2366 967.285 86.2376 967.103 86.2482C966.739 86.2694 966.43 86.3651 966.175 86.5352C965.929 86.7047 965.745 86.9391 965.625 87.2383C965.514 87.5369 965.471 87.9046 965.495 88.3414L966.395 104.394ZM967.874 89.4901L968.035 92.3703L960.092 92.8335L959.93 89.9533L967.874 89.4901ZM976.469 104.081C975.459 104.14 974.554 104.037 973.754 103.774C972.964 103.509 972.283 103.101 971.714 102.55C971.144 101.99 970.694 101.3 970.366 100.479C970.037 99.6581 969.842 98.7108 969.782 97.637L969.714 96.4221C969.646 95.2208 969.724 94.1618 969.947 93.2449C970.169 92.319 970.512 91.532 970.978 90.884C971.444 90.236 972.032 89.7406 972.744 89.3979C973.463 89.0455 974.287 88.8422 975.215 88.7881C976.143 88.734 976.966 88.8412 977.684 89.1098C978.411 89.3687 979.023 89.7895 979.521 90.3722C980.019 90.9457 980.411 91.6715 980.698 92.5496C980.984 93.4276 981.161 94.4581 981.227 95.6412L981.325 97.3884L971.43 97.9654L971.279 95.2763L977.421 94.9182L977.402 94.5769C977.368 93.9763 977.276 93.4795 977.127 93.0865C976.976 92.6844 976.759 92.3912 976.475 92.2069C976.191 92.0226 975.821 91.9437 975.366 91.9703C974.984 91.9926 974.665 92.0887 974.41 92.2588C974.155 92.4289 973.959 92.6823 973.823 93.0189C973.686 93.3555 973.597 93.7899 973.553 94.322C973.51 94.8449 973.508 95.4704 973.549 96.1984L973.617 97.4133C973.655 98.0959 973.747 98.6657 973.891 99.1229C974.035 99.5711 974.228 99.9341 974.472 100.212C974.725 100.48 975.023 100.668 975.367 100.776C975.71 100.875 976.104 100.911 976.55 100.885C977.224 100.846 977.822 100.692 978.346 100.424C978.878 100.147 979.323 99.7877 979.682 99.3468L981.341 101.578C981.096 101.939 980.752 102.306 980.307 102.679C979.862 103.052 979.323 103.367 978.689 103.623C978.055 103.879 977.315 104.032 976.469 104.081ZM989.845 103.301C988.835 103.36 987.93 103.257 987.13 102.994C986.339 102.729 985.659 102.322 985.09 101.77C984.52 101.21 984.07 100.52 983.741 99.699C983.412 98.8782 983.218 97.9309 983.158 96.857L983.089 95.6422C983.022 94.4409 983.1 93.3819 983.322 92.465C983.544 91.5391 983.888 90.7521 984.354 90.1041C984.82 89.4561 985.408 88.9607 986.119 88.618C986.839 88.2656 987.663 88.0623 988.591 88.0082C989.519 87.9541 990.342 88.0613 991.06 88.3299C991.787 88.5888 992.399 89.0096 992.897 89.5923C993.395 90.1658 993.787 90.8916 994.074 91.7697C994.36 92.6477 994.537 93.6782 994.603 94.8613L994.701 96.6085L984.805 97.1855L984.655 94.4964L990.797 94.1382L990.778 93.797C990.744 93.1964 990.652 92.6996 990.502 92.3066C990.352 91.9045 990.135 91.6113 989.851 91.427C989.566 91.2427 989.197 91.1638 988.742 91.1904C988.36 91.2126 988.041 91.3088 987.786 91.4789C987.531 91.649 987.335 91.9024 987.198 92.239C987.062 92.5756 986.972 93.01 986.929 93.542C986.885 94.065 986.884 94.6905 986.925 95.4185L986.993 96.6334C987.031 97.3159 987.122 97.8858 987.267 98.343C987.41 98.7912 987.604 99.1542 987.848 99.4321C988.1 99.7004 988.398 99.8885 988.742 99.9963C989.086 100.095 989.48 100.131 989.926 100.105C990.599 100.066 991.198 99.9124 991.721 99.6445C992.254 99.367 992.699 99.0078 993.058 98.5669L994.716 100.798C994.472 101.16 994.127 101.527 993.683 101.899C993.238 102.272 992.699 102.587 992.065 102.843C991.431 103.099 990.691 103.252 989.845 103.301Z" fill="#EEDCC8"/>
<path d="M1206.45 83.7553L1210.42 83.5238C1210.45 85.0194 1210.22 86.2973 1209.73 87.3575C1209.24 88.4085 1208.51 89.2274 1207.53 89.8141C1206.56 90.4003 1205.36 90.7348 1203.94 90.8175C1202.84 90.8817 1201.85 90.7568 1200.98 90.4426C1200.1 90.1194 1199.34 89.6158 1198.7 88.9319C1198.06 88.248 1197.56 87.3872 1197.19 86.3496C1196.83 85.3024 1196.61 84.0872 1196.53 82.7039L1196.34 79.3323C1196.26 77.949 1196.36 76.7157 1196.61 75.6324C1196.88 74.5486 1197.3 73.6297 1197.86 72.8758C1198.43 72.1122 1199.13 71.5235 1199.96 71.1096C1200.81 70.6861 1201.77 70.4427 1202.85 70.3796C1204.3 70.2953 1205.52 70.4977 1206.53 70.987C1207.53 71.4762 1208.33 72.2287 1208.91 73.2445C1209.51 74.2506 1209.9 75.5013 1210.1 76.9965L1206.11 77.2288C1206.03 76.284 1205.88 75.5487 1205.66 75.0229C1205.45 74.4875 1205.13 74.1223 1204.72 73.9272C1204.31 73.723 1203.75 73.6416 1203.04 73.683C1202.51 73.7138 1202.06 73.8359 1201.69 74.0493C1201.32 74.2536 1201.02 74.5676 1200.8 74.9915C1200.57 75.4153 1200.42 75.9628 1200.34 76.6341C1200.27 77.3047 1200.26 78.1179 1200.31 79.0734L1200.5 82.4723C1200.56 83.4097 1200.65 84.2076 1200.79 84.8661C1200.92 85.5155 1201.11 86.0431 1201.36 86.449C1201.6 86.8549 1201.91 87.1425 1202.29 87.3118C1202.69 87.4807 1203.17 87.5481 1203.76 87.5141C1204.43 87.4749 1204.97 87.3432 1205.36 87.1191C1205.77 86.8945 1206.06 86.517 1206.23 85.9866C1206.4 85.4562 1206.48 84.7125 1206.45 83.7553ZM1212.28 83.1554L1212.22 82.1589C1212.16 81.0032 1212.24 79.9714 1212.46 79.0637C1212.69 78.1554 1213.05 77.3858 1213.53 76.755C1214.02 76.115 1214.62 75.6191 1215.33 75.2672C1216.05 74.9057 1216.86 74.6985 1217.77 74.6454C1218.69 74.5918 1219.52 74.7031 1220.27 74.9791C1221.02 75.2456 1221.68 75.6685 1222.23 76.248C1222.79 76.8179 1223.24 77.5405 1223.57 78.4159C1223.9 79.2912 1224.1 80.3068 1224.16 81.4625L1224.22 82.459C1224.28 83.6057 1224.2 84.6331 1223.97 85.5414C1223.74 86.4497 1223.37 87.2241 1222.88 87.8646C1222.39 88.5045 1221.8 89.0004 1221.09 89.3523C1220.38 89.7041 1219.57 89.9066 1218.66 89.9596C1217.75 90.0127 1216.91 89.906 1216.16 89.6396C1215.41 89.3726 1214.76 88.9497 1214.2 88.3707C1213.64 87.7918 1213.19 87.0646 1212.86 86.1892C1212.53 85.3133 1212.34 84.302 1212.28 83.1554ZM1216.04 81.9361L1216.1 82.9325C1216.14 83.6151 1216.22 84.2039 1216.33 84.6991C1216.46 85.1938 1216.63 85.5997 1216.83 85.9167C1217.04 86.2331 1217.28 86.461 1217.55 86.6004C1217.82 86.7397 1218.13 86.7993 1218.48 86.7791C1218.82 86.7589 1219.13 86.6635 1219.39 86.4929C1219.66 86.3223 1219.87 86.0681 1220.02 85.7304C1220.18 85.3922 1220.29 84.9705 1220.35 84.4652C1220.41 83.9594 1220.42 83.3652 1220.38 82.6827L1220.33 81.6862C1220.29 81.0218 1220.21 80.4423 1220.08 79.9477C1219.95 79.4439 1219.79 79.038 1219.59 78.7301C1219.39 78.4131 1219.15 78.1807 1218.86 78.0328C1218.59 77.8753 1218.28 77.8063 1217.95 77.826C1217.61 77.8456 1217.32 77.9496 1217.06 78.1379C1216.82 78.3165 1216.61 78.5752 1216.43 78.914C1216.27 79.2431 1216.15 79.6654 1216.08 80.1808C1216.02 80.6867 1216.01 81.2717 1216.04 81.9361ZM1231.76 88.9219L1227.92 89.1455L1227.02 73.0925C1226.96 71.955 1227.1 70.9926 1227.45 70.2054C1227.8 69.4181 1228.32 68.8036 1229 68.3618C1229.7 67.9195 1230.54 67.6697 1231.52 67.6124C1231.84 67.5938 1232.14 67.6036 1232.43 67.6417C1232.72 67.6703 1233.01 67.7175 1233.28 67.7835L1233.41 70.83C1233.29 70.8004 1233.15 70.7814 1232.99 70.7727C1232.82 70.7641 1232.65 70.765 1232.47 70.7757C1232.1 70.7969 1231.79 70.8925 1231.54 71.0626C1231.29 71.2322 1231.11 71.4666 1230.99 71.7657C1230.88 72.0644 1230.83 72.4321 1230.86 72.8689L1231.76 88.9219ZM1233.24 74.0176L1233.4 76.8978L1225.45 77.361L1225.29 74.4807L1233.24 74.0176ZM1240.93 88.3871L1237.09 88.6107L1236.19 72.5577C1236.13 71.4202 1236.27 70.4578 1236.62 69.6706C1236.97 68.8833 1237.49 68.2688 1238.17 67.827C1238.87 67.3847 1239.71 67.1349 1240.69 67.0776C1241.01 67.059 1241.31 67.0688 1241.6 67.1069C1241.89 67.1355 1242.18 67.1827 1242.46 67.2487L1242.58 70.2952C1242.46 70.2657 1242.32 70.2466 1242.16 70.2379C1241.99 70.2293 1241.82 70.2303 1241.64 70.2409C1241.27 70.2621 1240.96 70.3577 1240.71 70.5278C1240.46 70.6974 1240.28 70.9318 1240.16 71.2309C1240.05 71.5296 1240 71.8973 1240.03 72.3341L1240.93 88.3871ZM1242.41 73.4828L1242.57 76.363L1234.63 76.8262L1234.46 73.9459L1242.41 73.4828ZM1251 88.0735C1249.99 88.1324 1249.09 88.03 1248.29 87.7662C1247.5 87.5019 1246.82 87.0942 1246.25 86.5431C1245.68 85.9828 1245.23 85.2923 1244.9 84.4716C1244.57 83.6508 1244.38 82.7035 1244.32 81.6296L1244.25 80.4147C1244.18 79.2135 1244.26 78.1545 1244.48 77.2376C1244.7 76.3117 1245.05 75.5247 1245.51 74.8767C1245.98 74.2287 1246.57 73.7333 1247.28 73.3905C1248 73.0382 1248.82 72.8349 1249.75 72.7808C1250.68 72.7267 1251.5 72.8339 1252.22 73.1025C1252.94 73.3614 1253.56 73.7822 1254.06 74.3648C1254.55 74.9384 1254.95 75.6642 1255.23 76.5422C1255.52 77.4203 1255.69 78.4508 1255.76 79.6339L1255.86 81.3811L1245.96 81.9581L1245.81 79.2689L1251.95 78.9108L1251.94 78.5696C1251.9 77.9689 1251.81 77.4721 1251.66 77.0792C1251.51 76.6771 1251.29 76.3839 1251.01 76.1996C1250.72 76.0153 1250.35 75.9364 1249.9 75.9629C1249.52 75.9852 1249.2 76.0814 1248.94 76.2515C1248.69 76.4216 1248.49 76.675 1248.36 77.0116C1248.22 77.3482 1248.13 77.7826 1248.09 78.3146C1248.04 78.8376 1248.04 79.4631 1248.08 80.1911L1248.15 81.406C1248.19 82.0885 1248.28 82.6584 1248.42 83.1156C1248.57 83.5637 1248.76 83.9268 1249.01 84.2047C1249.26 84.473 1249.56 84.6611 1249.9 84.7688C1250.24 84.8675 1250.64 84.9039 1251.08 84.8779C1251.76 84.8386 1252.36 84.685 1252.88 84.4171C1253.41 84.1396 1253.86 83.7803 1254.22 83.3394L1255.87 85.5709C1255.63 85.9321 1255.29 86.2991 1254.84 86.672C1254.4 87.0449 1253.86 87.3593 1253.22 87.6154C1252.59 87.8715 1251.85 88.0242 1251 88.0735ZM1264.38 87.2936C1263.37 87.3525 1262.46 87.2501 1261.66 86.9863C1260.87 86.722 1260.19 86.3143 1259.62 85.7631C1259.05 85.2029 1258.6 84.5124 1258.27 83.6916C1257.95 82.8709 1257.75 81.9236 1257.69 80.8497L1257.62 79.6348C1257.56 78.4336 1257.63 77.3745 1257.86 76.4577C1258.08 75.5318 1258.42 74.7448 1258.89 74.0968C1259.35 73.4488 1259.94 72.9534 1260.65 72.6106C1261.37 72.2583 1262.2 72.055 1263.12 72.0009C1264.05 71.9468 1264.88 72.054 1265.59 72.3226C1266.32 72.5815 1266.93 73.0023 1267.43 73.5849C1267.93 74.1585 1268.32 74.8843 1268.61 75.7623C1268.89 76.6404 1269.07 77.6709 1269.14 78.854L1269.23 80.6012L1259.34 81.1782L1259.19 78.489L1265.33 78.1309L1265.31 77.7897C1265.28 77.189 1265.19 76.6922 1265.04 76.2992C1264.89 75.8972 1264.67 75.604 1264.38 75.4197C1264.1 75.2354 1263.73 75.1565 1263.28 75.183C1262.89 75.2053 1262.57 75.3015 1262.32 75.4716C1262.06 75.6417 1261.87 75.8951 1261.73 76.2317C1261.6 76.5683 1261.51 77.0027 1261.46 77.5347C1261.42 78.0577 1261.42 78.6832 1261.46 79.4112L1261.53 80.6261C1261.56 81.3086 1261.66 81.8785 1261.8 82.3357C1261.94 82.7838 1262.14 83.1469 1262.38 83.4248C1262.63 83.6931 1262.93 83.8812 1263.28 83.9889C1263.62 84.0876 1264.01 84.124 1264.46 84.098C1265.13 84.0587 1265.73 83.9051 1266.26 83.6372C1266.79 83.3597 1267.23 83.0004 1267.59 82.5595L1269.25 84.791C1269.01 85.1522 1268.66 85.5192 1268.22 85.8921C1267.77 86.265 1267.23 86.5794 1266.6 86.8355C1265.96 87.0916 1265.22 87.2443 1264.38 87.2936Z" fill="#EEDCC8"/>
<path d="M1480.98 67.7478L1484.95 67.5162C1484.98 69.0118 1484.75 70.2897 1484.27 71.3499C1483.78 72.401 1483.04 73.2199 1482.06 73.8066C1481.09 74.3927 1479.9 74.7272 1478.48 74.81C1477.37 74.8742 1476.39 74.7492 1475.51 74.4351C1474.63 74.1118 1473.88 73.6082 1473.24 72.9243C1472.59 72.2404 1472.09 71.3797 1471.72 70.3421C1471.36 69.2949 1471.14 68.0796 1471.07 66.6964L1470.88 63.3247C1470.8 61.9415 1470.89 60.7082 1471.15 59.6249C1471.42 58.541 1471.83 57.6221 1472.39 56.8682C1472.96 56.1046 1473.66 55.5159 1474.5 55.102C1475.34 54.6785 1476.3 54.4352 1477.39 54.372C1478.83 54.2877 1480.06 54.4901 1481.06 54.9794C1482.07 55.4686 1482.86 56.2211 1483.45 57.2369C1484.04 58.243 1484.44 59.4937 1484.63 60.9889L1480.64 61.2213C1480.56 60.2764 1480.41 59.5411 1480.19 59.0153C1479.98 58.4799 1479.67 58.1147 1479.25 57.9196C1478.84 57.7155 1478.28 57.6341 1477.57 57.6755C1477.04 57.7062 1476.59 57.8283 1476.22 58.0417C1475.85 58.246 1475.55 58.5601 1475.33 58.9839C1475.11 59.4077 1474.96 59.9553 1474.87 60.6265C1474.8 61.2972 1474.79 62.1103 1474.85 63.0658L1475.04 66.4648C1475.09 67.4021 1475.18 68.2 1475.32 68.8585C1475.46 69.5079 1475.65 70.0355 1475.89 70.4414C1476.13 70.8473 1476.44 71.1349 1476.83 71.3043C1477.22 71.4731 1477.71 71.5405 1478.29 71.5066C1478.96 71.4673 1479.5 71.3356 1479.9 71.1116C1480.31 70.8869 1480.59 70.5094 1480.77 69.979C1480.94 69.4487 1481.01 68.7049 1480.98 67.7478ZM1486.81 67.1478L1486.75 66.1513C1486.69 64.9956 1486.77 63.9638 1486.99 63.0561C1487.22 62.1478 1487.58 61.3782 1488.07 60.7474C1488.55 60.1074 1489.15 59.6115 1489.86 59.2597C1490.58 58.8982 1491.39 58.6909 1492.3 58.6378C1493.22 58.5843 1494.06 58.6955 1494.8 58.9716C1495.56 59.238 1496.21 59.661 1496.76 60.2404C1497.32 60.8103 1497.77 61.5329 1498.1 62.4083C1498.43 63.2837 1498.63 64.2992 1498.7 65.455L1498.75 66.4515C1498.82 67.5981 1498.73 68.6256 1498.5 69.5338C1498.27 70.4421 1497.91 71.2165 1497.41 71.857C1496.93 72.497 1496.33 72.9929 1495.62 73.3447C1494.91 73.6966 1494.1 73.899 1493.19 73.9521C1492.28 74.0051 1491.45 73.8984 1490.69 73.632C1489.95 73.365 1489.29 72.9421 1488.73 72.3631C1488.17 71.7842 1487.72 71.057 1487.39 70.1816C1487.07 69.3057 1486.87 68.2944 1486.81 67.1478ZM1490.58 65.9285L1490.63 66.925C1490.67 67.6075 1490.75 68.1964 1490.87 68.6916C1491 69.1863 1491.16 69.5921 1491.36 69.9091C1491.57 70.2256 1491.81 70.4535 1492.08 70.5928C1492.36 70.7321 1492.67 70.7917 1493.01 70.7715C1493.36 70.7514 1493.66 70.656 1493.93 70.4853C1494.19 70.3147 1494.4 70.0606 1494.55 69.7229C1494.72 69.3847 1494.83 68.9629 1494.88 68.4576C1494.94 67.9518 1494.96 67.3576 1494.92 66.6751L1494.86 65.6786C1494.82 65.0143 1494.74 64.4348 1494.61 63.9401C1494.49 63.4363 1494.32 63.0305 1494.12 62.7226C1493.92 62.4056 1493.68 62.1731 1493.4 62.0252C1493.12 61.8677 1492.82 61.7988 1492.48 61.8184C1492.15 61.838 1491.85 61.942 1491.6 62.1303C1491.35 62.309 1491.14 62.5677 1490.97 62.9064C1490.8 63.2355 1490.69 63.6578 1490.61 64.1733C1490.55 64.6791 1490.54 65.2642 1490.58 65.9285ZM1506.29 72.9143L1502.45 73.1379L1501.56 57.085C1501.49 55.9474 1501.63 54.985 1501.98 54.1978C1502.33 53.4106 1502.85 52.796 1503.54 52.3542C1504.23 51.9119 1505.07 51.6621 1506.05 51.6048C1506.37 51.5862 1506.68 51.596 1506.96 51.6342C1507.25 51.6627 1507.54 51.71 1507.82 51.7759L1507.95 54.8224C1507.83 54.7929 1507.68 54.7738 1507.52 54.7652C1507.35 54.7565 1507.18 54.7575 1507 54.7681C1506.63 54.7893 1506.33 54.885 1506.07 55.0551C1505.82 55.2246 1505.64 55.459 1505.52 55.7582C1505.41 56.0568 1505.37 56.4245 1505.39 56.8613L1506.29 72.9143ZM1507.77 58.01L1507.93 60.8902L1499.99 61.3534L1499.83 58.4732L1507.77 58.01ZM1515.46 72.3795L1511.63 72.6031L1510.73 56.5502C1510.66 55.4126 1510.81 54.4502 1511.15 53.663C1511.5 52.8758 1512.02 52.2612 1512.71 51.8194C1513.4 51.3771 1514.24 51.1273 1515.23 51.07C1515.55 51.0514 1515.85 51.0612 1516.13 51.0994C1516.43 51.1279 1516.71 51.1752 1516.99 51.2411L1517.12 54.2876C1517 54.2581 1516.86 54.239 1516.69 54.2304C1516.53 54.2217 1516.35 54.2227 1516.17 54.2333C1515.81 54.2545 1515.5 54.3502 1515.24 54.5203C1515 54.6898 1514.81 54.9242 1514.69 55.2234C1514.58 55.522 1514.54 55.8897 1514.56 56.3265L1515.46 72.3795ZM1516.94 57.4752L1517.1 60.3554L1509.16 60.8186L1509 57.9384L1516.94 57.4752ZM1525.54 72.066C1524.53 72.1249 1523.62 72.0224 1522.82 71.7586C1522.03 71.4943 1521.35 71.0866 1520.78 70.5355C1520.21 69.9753 1519.76 69.2848 1519.43 68.464C1519.1 67.6432 1518.91 66.6959 1518.85 65.6221L1518.78 64.4072C1518.71 63.2059 1518.79 62.1469 1519.01 61.23C1519.24 60.3041 1519.58 59.5171 1520.05 58.8691C1520.51 58.2211 1521.1 57.7257 1521.81 57.383C1522.53 57.0306 1523.35 56.8273 1524.28 56.7732C1525.21 56.7191 1526.03 56.8263 1526.75 57.0949C1527.48 57.3538 1528.09 57.7746 1528.59 58.3573C1529.09 58.9308 1529.48 59.6566 1529.77 60.5347C1530.05 61.4127 1530.23 62.4433 1530.29 63.6263L1530.39 65.3736L1520.5 65.9505L1520.35 63.2614L1526.49 62.9033L1526.47 62.562C1526.44 61.9614 1526.34 61.4646 1526.19 61.0716C1526.04 60.6695 1525.83 60.3763 1525.54 60.192C1525.26 60.0077 1524.89 59.9289 1524.43 59.9554C1524.05 59.9777 1523.73 60.0738 1523.48 60.2439C1523.22 60.414 1523.03 60.6674 1522.89 61.004C1522.75 61.3407 1522.66 61.775 1522.62 62.3071C1522.58 62.83 1522.58 63.4555 1522.62 64.1835L1522.68 65.3984C1522.72 66.081 1522.81 66.6508 1522.96 67.108C1523.1 67.5562 1523.3 67.9192 1523.54 68.1971C1523.79 68.4655 1524.09 68.6535 1524.43 68.7613C1524.78 68.86 1525.17 68.8963 1525.62 68.8703C1526.29 68.831 1526.89 68.6774 1527.41 68.4095C1527.95 68.132 1528.39 67.7728 1528.75 67.3319L1530.41 69.5633C1530.16 69.9245 1529.82 70.2916 1529.37 70.6644C1528.93 71.0373 1528.39 71.3518 1527.76 71.6078C1527.12 71.8639 1526.38 72.0166 1525.54 72.066ZM1538.91 71.2861C1537.9 71.345 1537 71.2425 1536.2 70.9787C1535.41 70.7144 1534.73 70.3067 1534.16 69.7556C1533.59 69.1954 1533.14 68.5049 1532.81 67.6841C1532.48 66.8633 1532.29 65.916 1532.22 64.8422L1532.16 63.6273C1532.09 62.426 1532.17 61.367 1532.39 60.4501C1532.61 59.5242 1532.96 58.7372 1533.42 58.0892C1533.89 57.4412 1534.48 56.9458 1535.19 56.6031C1535.91 56.2507 1536.73 56.0474 1537.66 55.9933C1538.59 55.9392 1539.41 56.0464 1540.13 56.315C1540.85 56.5739 1541.47 56.9947 1541.96 57.5774C1542.46 58.1509 1542.85 58.8767 1543.14 59.7548C1543.43 60.6328 1543.6 61.6633 1543.67 62.8464L1543.77 64.5936L1533.87 65.1706L1533.72 62.4815L1539.86 62.1234L1539.84 61.7821C1539.81 61.1815 1539.72 60.6847 1539.57 60.2917C1539.42 59.8896 1539.2 59.5964 1538.92 59.4121C1538.63 59.2278 1538.26 59.1489 1537.81 59.1755C1537.43 59.1978 1537.11 59.2939 1536.85 59.464C1536.6 59.6341 1536.4 59.8875 1536.27 60.2241C1536.13 60.5607 1536.04 60.9951 1536 61.5272C1535.95 62.0501 1535.95 62.6756 1535.99 63.4036L1536.06 64.6185C1536.1 65.3011 1536.19 65.8709 1536.33 66.3281C1536.48 66.7763 1536.67 67.1393 1536.92 67.4172C1537.17 67.6856 1537.47 67.8736 1537.81 67.9814C1538.15 68.08 1538.55 68.1164 1538.99 68.0904C1539.67 68.0511 1540.27 67.8975 1540.79 67.6296C1541.32 67.3521 1541.77 66.9929 1542.13 66.552L1543.78 68.7834C1543.54 69.1446 1543.19 69.5116 1542.75 69.8845C1542.31 70.2574 1541.77 70.5719 1541.13 70.8279C1540.5 71.084 1539.76 71.2367 1538.91 71.2861Z" fill="#EEDCC8"/>
<path d="M1755.52 51.7405L1759.49 51.5089C1759.52 53.0045 1759.29 54.2824 1758.8 55.3426C1758.31 56.3936 1757.58 57.2125 1756.6 57.7992C1755.62 58.3854 1754.43 58.7199 1753.01 58.8027C1751.91 58.8669 1750.92 58.7419 1750.04 58.4277C1749.17 58.1045 1748.41 57.6009 1747.77 56.917C1747.13 56.2331 1746.62 55.3724 1746.25 54.3348C1745.89 53.2875 1745.68 52.0723 1745.6 50.689L1745.41 47.3174C1745.33 45.9341 1745.42 44.7009 1745.68 43.6175C1745.95 42.5337 1746.36 41.6148 1746.92 40.8609C1747.49 40.0973 1748.19 39.5086 1749.03 39.0947C1749.87 38.6712 1750.84 38.4279 1751.92 38.3647C1753.37 38.2804 1754.59 38.4828 1755.6 38.9721C1756.6 39.4613 1757.4 40.2138 1757.98 41.2296C1758.58 42.2357 1758.97 43.4864 1759.16 44.9816L1755.18 45.2139C1755.1 44.2691 1754.95 43.5338 1754.73 43.008C1754.51 42.4726 1754.2 42.1074 1753.79 41.9123C1753.38 41.7081 1752.81 41.6268 1752.1 41.6681C1751.58 41.6989 1751.13 41.821 1750.76 42.0344C1750.38 42.2387 1750.09 42.5527 1749.86 42.9766C1749.64 43.4004 1749.49 43.9479 1749.41 44.6192C1749.34 45.2898 1749.33 46.103 1749.38 47.0585L1749.57 50.4575C1749.62 51.3948 1749.72 52.1927 1749.86 52.8512C1749.99 53.5006 1750.18 54.0282 1750.42 54.4341C1750.67 54.84 1750.98 55.1276 1751.36 55.2969C1751.75 55.4658 1752.24 55.5332 1752.82 55.4992C1753.5 55.46 1754.03 55.3283 1754.43 55.1042C1754.84 54.8796 1755.13 54.5021 1755.3 53.9717C1755.47 53.4413 1755.54 52.6976 1755.52 51.7405ZM1761.34 51.1405L1761.29 50.144C1761.22 48.9883 1761.3 47.9565 1761.53 47.0488C1761.76 46.1405 1762.12 45.3709 1762.6 44.7401C1763.09 44.1001 1763.68 43.6042 1764.39 43.2523C1765.11 42.8908 1765.93 42.6836 1766.84 42.6305C1767.76 42.5769 1768.59 42.6882 1769.33 42.9642C1770.09 43.2307 1770.74 43.6536 1771.3 44.2331C1771.86 44.803 1772.3 45.5256 1772.64 46.401C1772.97 47.2763 1773.17 48.2919 1773.23 49.4477L1773.29 50.4441C1773.35 51.5908 1773.27 52.6182 1773.03 53.5265C1772.8 54.4348 1772.44 55.2092 1771.95 55.8497C1771.46 56.4896 1770.86 56.9855 1770.15 57.3374C1769.44 57.6892 1768.63 57.8917 1767.72 57.9448C1766.81 57.9978 1765.98 57.8911 1765.23 57.6247C1764.48 57.3577 1763.83 56.9348 1763.27 56.3558C1762.7 55.7769 1762.26 55.0497 1761.92 54.1743C1761.6 53.2984 1761.41 52.2871 1761.34 51.1405ZM1765.11 49.9212L1765.17 50.9177C1765.2 51.6002 1765.28 52.189 1765.4 52.6843C1765.53 53.1789 1765.69 53.5848 1765.89 53.9018C1766.1 54.2182 1766.34 54.4461 1766.62 54.5855C1766.89 54.7248 1767.2 54.7844 1767.54 54.7642C1767.89 54.744 1768.2 54.6486 1768.46 54.478C1768.72 54.3074 1768.93 54.0532 1769.09 53.7156C1769.25 53.3773 1769.36 52.9556 1769.41 52.4503C1769.48 51.9445 1769.49 51.3503 1769.45 50.6678L1769.4 49.6713C1769.36 49.007 1769.28 48.4275 1769.15 47.9328C1769.02 47.429 1768.85 47.0231 1768.65 46.7152C1768.45 46.3982 1768.21 46.1658 1767.93 46.0179C1767.66 45.8604 1767.35 45.7915 1767.02 45.8111C1766.68 45.8307 1766.38 45.9347 1766.13 46.123C1765.88 46.3016 1765.67 46.5603 1765.5 46.8991C1765.34 47.2282 1765.22 47.6505 1765.15 48.1659C1765.09 48.6718 1765.07 49.2568 1765.11 49.9212ZM1780.82 56.907L1776.99 57.1306L1776.09 41.0776C1776.03 39.9401 1776.17 38.9777 1776.52 38.1905C1776.86 37.4032 1777.38 36.7887 1778.07 36.3469C1778.77 35.9046 1779.61 35.6548 1780.59 35.5975C1780.91 35.5789 1781.21 35.5887 1781.49 35.6269C1781.79 35.6554 1782.07 35.7026 1782.35 35.7686L1782.48 38.8151C1782.36 38.7856 1782.22 38.7665 1782.05 38.7578C1781.89 38.7492 1781.71 38.7502 1781.53 38.7608C1781.17 38.782 1780.86 38.8776 1780.6 39.0477C1780.36 39.2173 1780.17 39.4517 1780.05 39.7508C1779.94 40.0495 1779.9 40.4172 1779.92 40.854L1780.82 56.907ZM1782.3 42.0027L1782.46 44.8829L1774.52 45.3461L1774.36 42.4658L1782.3 42.0027ZM1790 56.3722L1786.16 56.5958L1785.26 40.5428C1785.2 39.4053 1785.34 38.4429 1785.69 37.6557C1786.04 36.8684 1786.55 36.2539 1787.24 35.8121C1787.94 35.3698 1788.78 35.12 1789.76 35.0627C1790.08 35.0441 1790.38 35.0539 1790.67 35.0921C1790.96 35.1206 1791.25 35.1678 1791.52 35.2338L1791.65 38.2803C1791.53 38.2508 1791.39 38.2317 1791.22 38.223C1791.06 38.2144 1790.89 38.2154 1790.7 38.226C1790.34 38.2472 1790.03 38.3429 1789.78 38.5129C1789.53 38.6825 1789.35 38.9169 1789.23 39.216C1789.12 39.5147 1789.07 39.8824 1789.1 40.3192L1790 56.3722ZM1791.47 41.4679L1791.64 44.3481L1783.69 44.8113L1783.53 41.931L1791.47 41.4679ZM1800.07 56.0587C1799.06 56.1175 1798.16 56.0151 1797.36 55.7513C1796.56 55.487 1795.88 55.0793 1795.32 54.5282C1794.75 53.9679 1794.3 53.2774 1793.97 52.4567C1793.64 51.6359 1793.44 50.6886 1793.38 49.6147L1793.31 48.3998C1793.25 47.1986 1793.33 46.1396 1793.55 45.2227C1793.77 44.2968 1794.11 43.5098 1794.58 42.8618C1795.05 42.2138 1795.63 41.7184 1796.34 41.3757C1797.06 41.0233 1797.89 40.82 1798.82 40.7659C1799.74 40.7118 1800.57 40.819 1801.29 41.0876C1802.01 41.3465 1802.62 41.7673 1803.12 42.35C1803.62 42.9235 1804.01 43.6493 1804.3 44.5274C1804.59 45.4054 1804.76 46.4359 1804.83 47.619L1804.93 49.3662L1795.03 49.9432L1794.88 47.2541L1801.02 46.8959L1801 46.5547C1800.97 45.9541 1800.88 45.4573 1800.73 45.0643C1800.58 44.6622 1800.36 44.369 1800.08 44.1847C1799.79 44.0004 1799.42 43.9215 1798.97 43.9481C1798.59 43.9703 1798.27 44.0665 1798.01 44.2366C1797.76 44.4067 1797.56 44.6601 1797.42 44.9967C1797.29 45.3333 1797.2 45.7677 1797.15 46.2997C1797.11 46.8227 1797.11 47.4482 1797.15 48.1762L1797.22 49.3911C1797.26 50.0736 1797.35 50.6435 1797.49 51.1007C1797.64 51.5488 1797.83 51.9119 1798.07 52.1898C1798.33 52.4581 1798.62 52.6462 1798.97 52.754C1799.31 52.8526 1799.71 52.889 1800.15 52.863C1800.82 52.8237 1801.42 52.6701 1801.95 52.4022C1802.48 52.1247 1802.92 51.7655 1803.28 51.3246L1804.94 53.556C1804.7 53.9172 1804.35 54.2842 1803.91 54.6571C1803.46 55.03 1802.92 55.3444 1802.29 55.6005C1801.66 55.8566 1800.92 56.0093 1800.07 56.0587ZM1813.45 55.2787C1812.44 55.3376 1811.53 55.2352 1810.73 54.9714C1809.94 54.7071 1809.26 54.2994 1808.69 53.7483C1808.12 53.188 1807.67 52.4975 1807.34 51.6768C1807.01 50.856 1806.82 49.9087 1806.76 48.8348L1806.69 47.6199C1806.62 46.4187 1806.7 45.3597 1806.92 44.4428C1807.15 43.5169 1807.49 42.7299 1807.95 42.0819C1808.42 41.4339 1809.01 40.9385 1809.72 40.5957C1810.44 40.2434 1811.26 40.0401 1812.19 39.986C1813.12 39.9319 1813.94 40.0391 1814.66 40.3077C1815.39 40.5666 1816 40.9874 1816.5 41.57C1817 42.1436 1817.39 42.8694 1817.67 43.7474C1817.96 44.6255 1818.14 45.656 1818.2 46.8391L1818.3 48.5863L1808.41 49.1633L1808.26 46.4741L1814.4 46.116L1814.38 45.7748C1814.34 45.1741 1814.25 44.6773 1814.1 44.2844C1813.95 43.8823 1813.74 43.5891 1813.45 43.4048C1813.17 43.2205 1812.8 43.1416 1812.34 43.1681C1811.96 43.1904 1811.64 43.2866 1811.39 43.4567C1811.13 43.6268 1810.94 43.8802 1810.8 44.2168C1810.66 44.5534 1810.57 44.9878 1810.53 45.5198C1810.49 46.0428 1810.49 46.6683 1810.53 47.3963L1810.59 48.6112C1810.63 49.2937 1810.72 49.8636 1810.87 50.3208C1811.01 50.7689 1811.21 51.132 1811.45 51.4099C1811.7 51.6782 1812 51.8663 1812.34 51.974C1812.69 52.0727 1813.08 52.1091 1813.53 52.0831C1814.2 52.0438 1814.8 51.8902 1815.32 51.6223C1815.85 51.3448 1816.3 50.9855 1816.66 50.5446L1818.32 52.7761C1818.07 53.1373 1817.73 53.5043 1817.28 53.8772C1816.84 54.2501 1816.3 54.5645 1815.67 54.8206C1815.03 55.0767 1814.29 55.2294 1813.45 55.2787Z" fill="#EEDCC8"/>
<defs>
<linearGradient id="paint0_linear_521_118" x1="-7.67426" y1="150.575" x2="1924.23" y2="46.1684" gradientUnits="userSpaceOnUse">
<stop stop-color="#180A06"/>
<stop offset="1" stop-color="#EC8013"/>
</linearGradient>
</defs>
</svg>
